HIERARCHY
ROOT SpineBase
{
  OFFSET 0.000000 0.000000 0.000000
  CHANNELS 6 Xposition Yposition Zposition Zrotation Xrotation Yrotation
  JOINT SpineMid
  {
    OFFSET 0.000000 32.290849 0.000000
    CHANNELS 3 Zrotation Xrotation Yrotation
    JOINT SpineShoulder
    {
      OFFSET 0.109971 24.005099 -0.725900
      CHANNELS 3 Zrotation Xrotation Yrotation
      JOINT Neck
      {
        OFFSET 0.065898 7.950122 -0.587971
        CHANNELS 3 Zrotation Xrotation Yrotation
        JOINT Head
        {
          OFFSET 4.507879 12.824546 1.118355
          CHANNELS 3 Zrotation Xrotation Yrotation
          End Site
          {
            OFFSET 0 0 0
          }
        }
      }
      JOINT ShoulderLeft
      {
        OFFSET -9.816133 -1.694033 -12.552975
        CHANNELS 3 Zrotation Xrotation Yrotation
        JOINT ElbowLeft
        {
          OFFSET -2.269511 -24.403572 -6.918359
          CHANNELS 3 Zrotation Xrotation Yrotation
          JOINT WristLeft
          {
            OFFSET 7.321793 -25.811668 0.138385
            CHANNELS 3 Zrotation Xrotation Yrotation
            JOINT HandLeft
            {
              OFFSET 1.079284 -5.817655 1.604550
              CHANNELS 3 Zrotation Xrotation Yrotation
              JOINT HandTipLeft
              {
                OFFSET 0.905526 -7.442833 -0.702888
                CHANNELS 3 Zrotation Xrotation Yrotation
                End Site
                {
                  OFFSET 0 0 0
                }
              }
              JOINT ThumbLeft
              {
                OFFSET 4.811099 2.710255 1.908217
                CHANNELS 3 Zrotation Xrotation Yrotation
                End Site
                {
                  OFFSET 0 0 0
                }
              }
            }
          }
        }
      }
      JOINT ShoulderRight
      {
        OFFSET 12.891813 -4.543704 7.771435
        CHANNELS 3 Zrotation Xrotation Yrotation
        JOINT ElbowRight
        {
          OFFSET 1.370862 -31.587737 4.095099
          CHANNELS 3 Zrotation Xrotation Yrotation
          JOINT WristRight
          {
            OFFSET 4.438886 -22.356976 -7.665558
            CHANNELS 3 Zrotation Xrotation Yrotation
            JOINT HandRight
            {
              OFFSET -1.725859 -6.075737 -1.795432
              CHANNELS 3 Zrotation Xrotation Yrotation
              JOINT HandTipRight
              {
                OFFSET 1.565777 -7.593976 0.011070
                CHANNELS 3 Zrotation Xrotation Yrotation
                End Site
                {
                  OFFSET 0 0 0
                }
              }
              JOINT ThumbRight
              {
                OFFSET -2.523515 0.992918 -3.191346
                CHANNELS 3 Zrotation Xrotation Yrotation
                End Site
                {
                  OFFSET 0 0 0
                }
              }
            }
          }
        }
      }
    }
  }
  JOINT HipLeft
  {
    OFFSET -5.125309 1.612240 -7.892879
    CHANNELS 3 Zrotation Xrotation Yrotation
    JOINT KneeLeft
    {
      OFFSET -11.196109 -33.835439 -1.562428
      CHANNELS 3 Zrotation Xrotation Yrotation
      JOINT AnkleLeft
      {
        OFFSET -10.918143 -31.906397 3.277845
        CHANNELS 3 Zrotation Xrotation Yrotation
        JOINT FootLeft
        {
          OFFSET 1.025121 -8.156429 -5.213642
          CHANNELS 3 Zrotation Xrotation Yrotation
          End Site
          {
            OFFSET 0 0 0
          }
        }
      }
    }
  }
  JOINT HipRight
  {
    OFFSET 5.288320 0.672776 0.870613
    CHANNELS 3 Zrotation Xrotation Yrotation
    JOINT KneeRight
    {
      OFFSET 1.495929 -33.983903 -1.745359
      CHANNELS 3 Zrotation Xrotation Yrotation
      JOINT AnkleRight
      {
        OFFSET -13.956813 -31.897742 12.466997
        CHANNELS 3 Zrotation Xrotation Yrotation
        JOINT FootRight
        {
          OFFSET 5.214195 -7.047399 -3.460285
          CHANNELS 3 Zrotation Xrotation Yrotation
          End Site
          {
            OFFSET 0 0 0
          }
        }
      }
    }
  }
}
MOTION
Frames: 15
Frame Time: 0.033333
-7.426622 72.421871 341.948589 -3.665752 -3.468926 -11.508389 0.104190 -1.090407 11.273760 -0.368601 -0.136520 -0.163878 15.300073 17.720987 -7.827814 0.000000 0.000000 0.000000 52.477783 -20.815161 -5.477106 3.144144 -33.700562 12.545596 -63.533423 17.459970 37.322962 47.879827 -38.776377 0.522468 0.000000 0.000000 0.000000 0.000000 0.000000 0.000000 28.678545 19.939659 -1.432726 8.524113 -74.853247 -3.672800 27.180172 12.604279 0.059017 -7.020263 13.020287 -8.253769 0.000000 0.000000 0.000000 0.000000 0.000000 0.000000 -2.345444 12.811253 9.094739 9.157478 -10.122544 5.107490 -0.047458 9.711522 -3.306895 0.000000 0.000000 0.000000 0.993388 -11.243038 10.770069 16.766632 25.467541 -5.085137 -20.702946 -24.072862 -9.317075 0.000000 0.000000 0.000000
-8.089552 72.629285 341.300462 -5.001771 -3.510002 -4.387890 0.135641 -1.102659 4.057595 -0.346435 0.026141 -0.208741 17.208520 19.171964 -8.722736 0.000000 0.000000 0.000000 61.057823 -25.487756 -3.567158 41.198349 -26.023557 13.559320 -127.111657 -30.652513 32.551267 113.550955 -48.874740 2.398375 0.000000 0.000000 0.000000 0.000000 0.000000 0.000000 41.718846 7.523478 1.123199 -13.755664 -70.860886 -16.645017 32.633498 8.973453 1.047313 -4.401328 4.729880 -13.445110 0.000000 0.000000 0.000000 0.000000 0.000000 0.000000 3.046425 13.984412 1.015657 6.860378 -11.125006 5.447518 0.944818 8.671706 -4.209018 0.000000 0.000000 0.000000 0.928865 -12.840639 3.297623 17.302211 27.120649 -5.488309 -20.502039 -21.709324 -7.256859 0.000000 0.000000 0.000000
-8.671563 72.856808 340.633732 -6.210490 -3.485222 -0.810142 0.189636 -0.952940 0.403636 -0.353951 0.140422 -0.251744 18.856713 19.434775 -9.046364 0.000000 0.000000 0.000000 69.382938 -28.822348 -1.605497 139.913244 6.555501 -151.449190 -66.554053 53.482877 158.211660 -119.697021 -51.425511 16.170101 0.000000 0.000000 0.000000 0.000000 0.000000 0.000000 55.535712 -9.922948 8.647963 -26.372391 -59.383281 -18.558904 35.440490 10.415987 -2.447223 -4.400419 1.860573 -14.708065 0.000000 0.000000 0.000000 0.000000 0.000000 0.000000 7.827097 13.952849 -3.351258 4.068128 -11.605275 5.439598 2.040347 5.929666 -5.113736 0.000000 0.000000 0.000000 1.036208 -13.832103 -0.542698 17.800159 27.449863 -5.410242 -21.765143 -15.629802 -2.111996 0.000000 0.000000 0.000000
-9.061042 73.218915 340.059149 -7.181870 -3.576651 -1.489964 0.029557 -1.086539 1.002075 -0.346678 0.020555 -0.305267 21.031668 20.528264 -9.815153 0.000000 0.000000 0.000000 77.877579 -31.989931 0.476030 150.901245 -4.833280 133.564903 -49.432057 -6.552166 179.498946 -58.013592 -30.537845 155.880014 0.000000 0.000000 0.000000 0.000000 0.000000 0.000000 66.093665 -24.664356 17.711841 -28.027897 -47.479179 -16.340765 33.749768 13.950951 -1.622995 -3.869061 7.875606 -18.772802 0.000000 0.000000 0.000000 0.000000 0.000000 0.000000 10.509808 13.681528 -2.951586 2.069247 -11.296474 5.167186 2.688564 1.610738 -5.900977 0.000000 0.000000 0.000000 1.801794 -14.264049 0.027533 18.580395 27.754554 -5.507046 -22.912684 -5.950045 6.434691 0.000000 0.000000 0.000000
-9.193857 73.683374 339.637077 -7.671396 -3.722296 -0.108177 0.173890 -0.757215 -0.402551 -0.058755 0.216836 -0.299197 21.088418 20.975732 -10.102813 0.000000 0.000000 0.000000 84.396630 -32.853296 1.370367 153.009854 2.452072 122.371927 -50.487742 1.090795 -179.520863 -43.068466 -21.029452 138.226473 0.000000 0.000000 0.000000 0.000000 0.000000 0.000000 69.017575 -34.700138 24.301163 -23.364443 -36.203590 -18.213021 31.392386 12.763510 5.518700 -6.881971 19.124965 -21.410081 0.000000 0.000000 0.000000 0.000000 0.000000 0.000000 12.232215 13.614386 -4.617205 1.248809 -11.398553 5.175566 3.864855 -0.657523 -6.905215 0.000000 0.000000 0.000000 0.948373 -14.325468 -1.493250 20.147405 27.592375 -5.620538 -31.013587 6.622069 20.791123 0.000000 0.000000 0.000000
-9.211064 73.940067 339.443076 -7.624908 -3.894524 -1.126427 0.666985 -0.363403 0.630867 0.192045 0.427822 -0.258531 18.560257 20.948650 -9.596131 0.000000 0.000000 0.000000 88.000155 -31.431682 -0.225393 158.306011 20.318654 124.246045 -70.715042 19.963109 178.784660 -46.065865 -23.148628 146.360837 0.000000 0.000000 0.000000 0.000000 0.000000 0.000000 69.069025 -32.677857 23.852468 -18.423802 -33.775631 -21.791874 23.535128 11.713103 19.083562 -11.090958 25.939595 -19.380413 0.000000 0.000000 0.000000 0.000000 0.000000 0.000000 11.320893 13.458728 -3.294990 1.834303 -10.601561 4.902160 5.237544 -3.701824 -7.973066 0.000000 0.000000 0.000000 0.733068 -13.494578 -0.390693 20.829988 26.637593 -5.351510 -33.533432 17.785367 31.369557 0.000000 0.000000 0.000000
-9.115607 73.953238 339.357512 -7.240514 -3.520871 -3.672148 1.012065 0.358289 3.260403 0.414625 0.465091 -0.219949 16.399312 19.601407 -8.850783 0.000000 0.000000 0.000000 88.508535 -25.886341 -5.998175 168.982433 50.912515 130.756414 -111.566653 41.175122 -165.233087 -104.783871 -26.396766 -141.593145 0.000000 0.000000 0.000000 0.000000 0.000000 0.000000 66.502687 -23.224707 18.875029 -5.641539 -35.664703 -26.272499 20.728905 6.244280 28.248887 -19.989568 24.157590 -9.905218 0.000000 0.000000 0.000000 0.000000 0.000000 0.000000 8.507199 13.292840 -0.181813 3.732958 -10.306255 4.903616 2.709002 -9.371898 -7.090212 0.000000 0.000000 0.000000 0.913270 -12.577237 2.381687 20.930489 25.029407 -4.759990 -34.852412 23.102568 36.092008 0.000000 0.000000 0.000000
-8.843987 73.853483 339.305464 -6.025479 -2.372113 -9.735278 0.952819 1.393690 9.497029 0.612482 0.361625 -0.158130 10.596852 14.655729 -6.075526 0.000000 0.000000 0.000000 85.863651 -16.777857 -13.942017 -61.584986 64.455578 27.651668 -158.787573 3.104519 -119.799839 171.630877 2.110582 -117.458913 0.000000 0.000000 0.000000 0.000000 0.000000 0.000000 62.177819 -5.059627 10.247629 18.234340 -34.111775 -23.904672 21.487038 0.763569 20.585816 -44.913220 12.397136 18.288332 0.000000 0.000000 0.000000 0.000000 0.000000 0.000000 3.440783 11.718066 6.918992 6.514036 -9.581180 4.755538 5.395497 -4.942310 -8.460317 0.000000 0.000000 0.000000 1.611470 -11.688896 8.854440 19.925048 22.806787 -3.879341 -34.484738 24.786011 36.915557 0.000000 0.000000 0.000000
-8.455903 73.826958 339.220397 -4.812162 -1.456651 -15.098038 1.025770 1.864202 14.964537 0.646738 0.265660 -0.093874 6.570732 15.861689 -6.380039 0.000000 0.000000 0.000000 79.531023 -1.218191 -25.787636 -18.463133 23.113570 18.999877 146.242064 -58.925031 -163.361443 109.494096 14.551788 -130.741127 0.000000 0.000000 0.000000 0.000000 0.000000 0.000000 56.674477 13.641627 1.564717 37.170987 -17.263857 -21.474178 27.857716 -7.189859 12.768410 -51.890226 -5.332059 30.518761 0.000000 0.000000 0.000000 0.000000 0.000000 0.000000 0.074251 9.377007 12.995535 8.106484 -8.804909 4.452500 6.467504 -0.188037 -8.964349 0.000000 0.000000 0.000000 1.808102 -11.014427 14.502101 19.012889 20.969616 -3.224635 -32.839835 23.195924 34.389661 0.000000 0.000000 0.000000
-7.917846 73.753100 339.110599 -4.616924 0.277222 -20.081237 0.613658 2.339232 20.054970 0.771512 0.059173 -0.076976 9.325758 13.435941 -6.643091 0.000000 0.000000 0.000000 73.217947 14.532597 -33.141748 -0.981231 8.522838 28.163622 44.578951 -23.444406 67.310744 18.993708 38.383844 -86.526840 0.000000 0.000000 0.000000 0.000000 0.000000 0.000000 49.225478 31.304390 -4.790009 43.875552 1.906458 -17.048144 9.703125 6.462583 -40.735357 12.161073 -43.504657 84.840289 0.000000 0.000000 0.000000 0.000000 0.000000 0.000000 -1.078039 6.587383 18.337150 8.919713 -8.528657 4.257361 6.526044 3.710000 -8.800788 0.000000 0.000000 0.000000 3.086483 -11.231397 19.707850 18.031268 19.530823 -2.772087 -28.840902 17.285433 27.019734 0.000000 0.000000 0.000000
-7.301308 73.577661 338.946160 -5.086713 2.586391 -23.609616 0.770051 2.538704 23.713220 0.535084 0.056913 -0.102224 14.024687 8.089378 -5.581488 0.000000 0.000000 0.000000 63.632204 29.392710 -35.170013 14.690514 10.894809 35.288657 31.646530 3.511537 44.809665 -11.949480 22.735625 -67.142915 0.000000 0.000000 0.000000 0.000000 0.000000 0.000000 39.515697 46.369728 -7.470045 35.421992 19.983884 -10.094868 -1.391756 12.711396 -54.823238 29.138324 -24.457978 86.666766 0.000000 0.000000 0.000000 0.000000 0.000000 0.000000 -0.354782 3.977096 22.022564 8.968749 -8.650128 4.177773 5.857710 6.941692 -8.082864 0.000000 0.000000 0.000000 4.986306 -12.361212 23.468910 17.247189 18.758396 -2.590766 -22.763367 2.794978 11.981750 0.000000 0.000000 0.000000
-6.659417 73.333728 338.734900 -5.700323 4.863311 -24.429507 1.057706 2.498786 24.682673 0.300367 -0.010694 -0.147119 18.223002 3.142789 -3.923772 0.000000 0.000000 0.000000 52.005865 41.140953 -32.678569 22.133614 23.459787 39.395801 21.873125 13.742354 36.847214 -20.599768 16.127302 -69.834792 0.000000 0.000000 0.000000 0.000000 0.000000 0.000000 26.912042 59.646492 -6.040357 20.108950 24.494762 2.702010 2.856051 6.126133 -49.362982 13.112283 -10.864081 72.797614 0.000000 0.000000 0.000000 0.000000 0.000000 0.000000 1.094453 2.197637 22.883842 8.455237 -9.285096 4.296896 3.774979 3.924898 -6.837506 0.000000 0.000000 0.000000 6.414688 -14.146538 24.514373 17.057491 18.460525 -2.551019 -20.336016 -9.335083 0.711937 0.000000 0.000000 0.000000
-6.206813 73.209914 338.454300 -5.926362 6.430286 -24.140454 1.280957 2.375173 24.501639 0.272668 -0.041259 -0.156573 19.610353 0.010314 -2.619524 0.000000 0.000000 0.000000 41.260583 48.926832 -28.568436 23.122708 29.212742 43.596624 17.090240 12.919429 35.896800 -21.487037 14.178855 -70.825433 0.000000 0.000000 0.000000 0.000000 0.000000 0.000000 11.504609 67.094987 0.688576 8.492652 22.947723 11.214894 1.270845 5.666221 -49.685150 13.271601 -4.410102 69.316063 0.000000 0.000000 0.000000 0.000000 0.000000 0.000000 1.967639 0.794903 22.670532 8.182017 -9.582971 4.332209 3.226828 7.770968 -6.004304 0.000000 0.000000 0.000000 6.851312 -15.879035 24.354394 17.274051 18.391529 -2.564858 -20.154647 -16.257828 -5.762257 0.000000 0.000000 0.000000
-5.785692 73.093882 338.125855 -6.279273 7.837439 -22.220478 1.606272 2.014681 22.683190 0.269510 -0.039385 -0.168813 20.948493 -2.758364 -1.311731 0.000000 0.000000 0.000000 28.227054 55.241053 -21.616124 17.413247 35.513771 47.814081 14.692963 9.117866 39.453927 -21.974190 17.575324 -77.065141 0.000000 0.000000 0.000000 0.000000 0.000000 0.000000 -13.021845 72.614843 16.186423 -4.087882 17.232034 16.921282 -0.404129 4.054216 -48.860360 15.434984 2.623403 65.508571 0.000000 0.000000 0.000000 0.000000 0.000000 0.000000 3.036348 -0.214641 20.807420 7.647985 -10.026120 4.429223 2.556965 12.265661 -4.950078 0.000000 0.000000 0.000000 6.727217 -18.127874 22.461431 17.876632 18.745097 -2.708639 -20.911883 -20.599052 -9.989892 0.000000 0.000000 0.000000
-5.396052 72.985631 337.749565 -6.763247 9.080210 -18.824387 1.981648 1.389941 19.384414 0.290374 -0.005535 -0.183185 22.225447 -5.131577 -0.058153 0.000000 0.000000 0.000000 10.666973 60.242489 -10.269188 4.272287 39.232572 52.621598 15.614053 4.842086 46.848373 -23.420043 27.463535 -91.030002 0.000000 0.000000 0.000000 0.000000 0.000000 0.000000 -51.772707 74.012560 44.240025 -18.374544 5.527061 16.413660 -0.099334 0.361322 -45.471046 18.372744 12.005787 59.327237 0.000000 0.000000 0.000000 0.000000 0.000000 0.000000 4.265281 -0.919187 17.460761 6.852600 -10.615626 4.583617 1.714659 17.295820 -3.644577 0.000000 0.000000 0.000000 5.853555 -20.850067 18.907151 18.870371 19.519473 -2.995025 -22.167747 -22.607419 -12.050028 0.000000 0.000000 0.000000
